<?xml version="1.0" encoding="UTF-8"?> <svg xmlns="http://www.w3.org/2000/svg" width="1020" height="1157"><path d="M1020 1157H0V-188h1020v1345z" fill="#fff"></path><path d="M1020 1157H0v-157h1020v157z" fill="#f8b20a"></path><g fill-rule="evenodd" fill="#100f0d"><path d="M149 1041h28c13 0 21 8 21 17 0 8-4 13-10 16 8 3 14 8 14 18 0 14-10 23-26 23h-27v-74zm26 28c5 0 8-2 8-7s-3-8-8-8h-10v15h10zm0 32c7 0 11-3 11-10 0-6-4-9-11-9h-10v19h10zm86-9h-39c0 7 6 12 12 12s11-3 12-8h14c-2 13-12 20-26 20-16 0-27-12-27-27 0-17 12-28 27-28 17 0 27 10 27 29v2zm-38-11h24c-2-5-6-8-13-8-5 0-10 3-11 8zm43 17h15c0 3 2 6 6 6 3 0 5-2 5-5 0-2-2-4-7-5l-7-2c-6-2-11-7-11-15 0-10 9-16 19-16 13 0 19 7 19 17h-14c0-3-2-5-5-5s-5 2-5 4 2 3 6 4l8 2c7 2 12 7 12 15 0 10-8 18-20 18s-21-7-21-18zm67-23v20c0 4 2 6 6 6h6v14h-11c-9 0-16-7-16-17v-23h-8v-12h8v-14h15v14h12v12h-12zm40 14c0-16 11-28 28-28s29 12 29 28-12 27-29 27-28-12-28-27zm42 0c0-9-6-14-14-14s-13 5-13 14 6 14 13 14 14-6 14-14zm40-28v2h12v12h-12v40h-15v-40h-8v-12h8v-4c0-12 8-18 17-18h10v13h-6c-4 0-6 3-6 7zm60 14v20c0 4 2 6 6 6h6v14h-10c-10 0-17-7-17-17v-23h-7v-12h7v-14h15v14h12v12h-12zm21-34h15v29c2-5 8-9 16-9 11 0 18 7 18 19v35h-15v-30c0-7-4-11-10-11s-9 4-9 11v30h-15v-74zm110 51h-39c1 7 6 12 13 12 6 0 10-3 12-8h14c-3 13-12 20-26 20-17 0-27-12-27-27 0-17 12-28 27-28 16 0 26 10 26 29v2zm-38-11h24c-1-5-5-8-12-8-5 0-10 3-12 8zm68-40h28c13 0 21 8 21 17 0 8-4 13-9 16 7 3 13 8 13 18 0 14-10 23-26 23h-27v-74zm27 28c4 0 7-2 7-7s-3-8-7-8h-11v15h11zm-1 31c7 0 11-2 11-9 0-6-4-9-11-9h-10v18h10zm86-8h-39c1 7 6 12 13 12 6 0 10-3 11-8h14c-2 13-12 20-25 20-17 0-28-12-28-27 0-17 13-28 27-28 17 0 27 10 27 29v2zm-38-11h24c-1-5-6-8-12-8s-10 3-12 8zm43 17h15c0 3 2 6 6 6s6-2 6-5c0-2-3-4-7-5l-7-2c-7-2-12-7-12-15 0-10 9-16 19-16 13 0 20 7 20 17h-14c0-3-2-5-6-5-3 0-5 2-5 4s2 3 6 4l8 2c7 2 12 7 12 15 0 10-8 18-20 18s-21-7-21-18zm67-23v20c0 4 2 6 6 6h6v14h-11c-9 0-16-7-16-17v-23h-7v-12h7v-14h15v14h12v12h-12zM390-27l23-22c7-6 9-9 9-15 0-7-5-11-11-11-8 0-12 5-13 11h-9c1-11 9-19 22-19s21 7 21 18c0 8-4 14-12 21l-17 15h29v9h-42v-7zm52-24c0-18 13-32 32-32s32 14 32 32c0 19-14 33-32 33s-32-14-32-33zm54 0c0-15-10-24-22-24s-23 9-23 24 11 24 23 24 22-9 22-24zm19 24l24-22c6-6 9-9 9-15 0-7-5-11-12-11s-12 5-12 11h-9c0-11 8-19 21-19s21 7 21 18c0 8-4 14-11 21l-18 15h30v9h-43v-7zm52-24c0-18 14-32 32-32s32 14 32 32c0 19-13 33-32 33s-32-14-32-33zm55 0c0-15-11-24-23-24s-22 9-22 24 10 24 22 24 23-9 23-24zM510 282a229 229 0 110 458 229 229 0 010-458zm0 432a203 203 0 100-406 203 203 0 000 406zm157-205a79 79 0 01-33 84 79 79 0 01-45 13c-20 0-39-8-53-21l-26 27-25-27a79 79 0 01-54 21c-16 0-32-5-45-14a79 79 0 01-29-37c-6-15-7-31-3-47a79 79 0 0124-40l-26-28h58a178 178 0 0148-23 178 178 0 01105 0 178 178 0 0148 23h57l-25 28c12 11 21 25 24 41zm-78 71a53 53 0 10-37-16c9 10 23 16 37 16zm28-53a28 28 0 11-56 0 28 28 0 0156 0zm-186 53a53 53 0 10-37-16c9 10 23 16 37 16zm139-133a153 153 0 00-59-12 153 153 0 00-60 12c34 13 59 43 59 78 0-35 26-65 60-78zm-111 80a28 28 0 11-56 0 28 28 0 0156 0zM303 776c-51-5-84-19-84-19s37-26 86-20c50 6 78 27 78 27s-29 17-80 12zm-82-60c-50-19-78-46-78-46s45-11 91 7 71 43 71 43-35 15-84-4zm-71-93c-42-38-59-77-59-77s48 6 87 42 53 71 53 71-40 2-81-36zm-2-88c-30-48-37-89-37-89s45 18 73 63c28 44 33 82 33 82s-39-8-69-56zm8-99c-25-50-28-93-28-93s42 23 66 70c23 48 24 87 24 87s-37-13-62-64zm107 228c-33-32-47-63-47-63s38 6 70 35 43 58 43 58-33 1-66-30zm92 69c-31-12-49-28-49-28s28-5 57 6 45 27 45 27-21 8-53-5zm90 35c-27 1-45-6-45-6s18-14 43-15 42 6 42 6-13 14-40 15zM236 581c-26-38-33-72-33-72s37 13 62 49c24 35 30 66 30 66s-33-5-59-43zm-10-113c-11-45-6-80-6-80s30 26 40 68 4 74 4 74-28-17-38-62zm412 296s27-21 77-27 87 20 87 20-33 14-84 19-80-12-80-12zm77-44s25-25 72-43c46-18 91-7 91-7s-28 27-78 46c-49 19-85 4-85 4zm75-61s14-35 53-71 87-42 87-42-18 39-59 77-81 36-81 36zm14-68s5-38 33-83c28-44 73-62 73-62s-7 41-37 89-69 56-69 56zM802 500s2-39 25-87c24-47 66-70 66-70s-3 43-28 93c-25 51-63 64-63 64zM692 694zm42-58c31-29 71-35 71-35s-14 31-47 63c-31 28-60 30-66 30 0 0 11-29 42-58zm-43 58h1-1zm-78 44s16-16 45-27 57-6 57-6-18 16-49 28c-32 13-53 5-53 5zm-77 15s17-7 42-6 43 15 43 15-19 7-45 6-40-15-40-15zm190-129s5-31 30-66c25-36 62-49 62-49s-7 34-33 72-59 43-59 43zm31-94s-6-32 4-74 40-68 40-68 5 35-6 80c-10 45-38 62-38 62zM523 764c0 7-6 13-13 13a13 13 0 01-5-1 13 13 0 01-7-12 13 13 0 014-8 13 13 0 018-4c7 0 13 5 13 12zm-250 68h8v16h-10c-7 0-12 4-12 11v42h-18v-69h18v11c2-8 7-11 14-11zm16 0h18v69h-18v-69zm92 9a36 36 0 01-25 61c-8 0-15-3-21-7v26h-18v-89h18v5c6-4 13-7 21-7 10 0 19 4 25 11zm-19 44a19 19 0 0011-11l1-8a19 19 0 00-6-14 19 19 0 00-6-4l-8-1a19 19 0 00-13 33c3 4 8 6 13 6l8-1zm355-6c0 13-11 23-27 23s-28-10-28-24v-1h18v1c0 6 4 10 10 10s10-3 10-8c0-4-3-6-10-8l-10-3c-11-3-16-10-16-19 0-11 10-20 26-20 15 0 25 9 25 21v1h-16v-1c0-4-4-7-9-7-6 0-10 2-10 6 0 3 3 5 10 7l10 3c14 4 17 12 17 19zm-263-47h18v69h-18v-7a36 36 0 110-57v-5zm-11 52l6-4a19 19 0 004-6l1-8-1-7a19 19 0 00-11-11h-7a19 19 0 00-13 32c3 4 8 6 13 6l8-2zm93-77h18v94h-18v-7a36 36 0 110-57v-30zm-11 77l6-4a19 19 0 004-6l1-8-1-7a19 19 0 00-11-11h-7a19 19 0 00-13 32c3 4 8 6 13 6l8-2zm112-52h17v69h-17v-69zm146 9a36 36 0 11-51 50 36 36 0 0151-50zm-17 44a19 19 0 0011-11 19 19 0 00-11-25 19 19 0 00-25 25 19 19 0 0025 11zm68-53h8v16h-10c-7 0-12 4-12 11v42h-18v-69h18v11c2-8 7-11 14-11zm-584-9h-25v78h-18v-78h-25v-16h68v16zm361 9h18l-24 69h-21l-24-69h19l16 50 16-50zm-302-17a11 11 0 01-1 4 11 11 0 01-6 6 11 11 0 01-8 0 11 11 0 01-6-6 11 11 0 010-8l2-4 4-2a11 11 0 018 0l4 2 2 4a11 11 0 011 4zm347 0a11 11 0 01-1 4 11 11 0 01-5 6 11 11 0 01-4 1 11 11 0 01-4-1 11 11 0 01-6-6 11 11 0 010-8l2-4 4-2a11 11 0 014-1 11 11 0 014 1 11 11 0 015 6 11 11 0 011 4zM269 29h-30v88h-23V29h-29V8h82v21zm41 11v21h-12c-8 0-12 4-12 12v44h-22V40h20v14c2-10 9-14 16-14h10zm3 38c0-22 16-40 38-40 11 0 19 3 24 9v-7h20v77h-20v-9c-5 6-12 11-25 11-22 0-37-18-37-41zm62 0c0-12-9-20-20-20s-21 8-21 20 9 21 21 21 20-8 20-21zm29-38h23l12 41 3 11 3-11 11-41h24l-26 77h-25l-25-77zm154 44h-57c1 10 9 17 18 17s16-5 18-12h21c-4 19-18 30-39 30-24 0-40-18-40-41 0-24 19-40 40-40 25 0 39 15 39 42v4zm-56-17h36c-2-7-8-12-18-12-8 0-15 4-18 12zm66-59h22v109h-22V8zm110 76h-57c1 10 9 17 18 17s16-5 18-12h20c-3 19-17 30-38 30-24 0-40-18-40-41 0-24 18-40 40-40 24 0 39 15 39 42v4zm-56-17h36c-2-7-9-12-19-12-7 0-14 4-17 12zm112-27v21h-12c-8 0-12 4-12 12v44h-22V40h20v14c2-10 9-14 17-14h9zm6 52h22c0 5 3 9 9 9 5 0 8-3 8-7s-4-6-11-8l-10-3c-10-3-17-10-17-22 0-14 13-23 29-23 18 0 28 10 28 24h-21c0-3-3-7-7-7-5 0-8 3-8 6s3 5 9 7l12 3c10 3 17 10 17 21 0 15-11 27-30 27-16 0-30-10-30-27zm68-49h3c5 0 10-3 11-10h-4c-7 0-13-6-13-14l1-5a14 14 0 013-4l5-3a14 14 0 015-1c9 0 15 9 15 21 0 19-9 27-22 27h-4V43zM268 203c0-34 25-57 55-57 29 0 48 16 52 42h-24c-3-13-13-21-28-21-18 0-32 15-32 36s14 35 32 35c14 0 25-8 28-21h24c-4 26-25 42-52 42-31 0-55-23-55-56zm117-55h22v43c3-7 12-13 24-13 16 0 26 11 26 28v51h-21v-44c0-9-7-16-15-16s-14 7-14 16v44h-22V148zm81 71c0-23 16-41 41-41s42 18 42 41-17 40-42 40-41-18-41-40zm61 0c0-13-8-21-20-21s-19 8-19 21 8 20 19 20 20-8 20-20zm31-39h21v77h-21v-77zm-3-23a14 14 0 012-12 14 14 0 0123 0 14 14 0 012 12 14 14 0 01-2 12 14 14 0 01-23 0 14 14 0 01-2-12zm33 62c0-23 17-41 41-41s37 13 40 31h-23c-2-6-8-11-17-11-10 0-19 8-19 21s9 20 19 20c9 0 14-4 17-11h23c-4 19-16 31-40 31s-41-18-41-40zm164 5h-57c1 10 8 17 18 17 9 0 15-4 17-11h21c-4 18-17 29-38 29-24 0-40-17-40-40 0-24 18-41 40-41 24 0 39 15 39 42v4zm-56-17h35c-2-7-8-12-18-12-8 0-15 5-17 12zm48-53h13v3h-5v15h-3v-15h-5v-3zm29 0h4v18h-3v-13l-5 13h-2l-4-13v13h-3v-18h3l5 13 5-13z"></path></g><path d="M332-122h352V-2H332v-120z" fill="#fff"></path></svg> 